<?xml version="1.0"?>
<svg xmlns="http://www.w3.org/2000/svg" height="512px" viewBox="-80 0 384 384" width="512px"><path d="m112 0c-61.761719 0-112 50.238281-112 112 0 30.433594 12.238281 58.03125 32 78.230469v41.769531c0 8.832031 7.167969 16 16 16s16-7.167969 16-16v-18.960938c14.574219 6.953126 30.808594 10.960938 48 10.960938s33.425781-4.007812 48-10.960938v129.074219l-40.839844-20.425781c-4.503906-2.246094-9.816406-2.246094-14.3125 0l-40.847656 20.425781v-46.113281c0-8.832031-7.167969-16-16-16s-16 7.167969-16 16v72c0 5.542969 2.871094 10.695312 7.585938 13.609375 4.71875 2.910156 10.613281 3.167969 15.566406.703125l56.847656-28.425781 56.839844 28.425781c2.265625 1.128906 4.710937 1.6875 7.160156 1.6875 2.921875 0 5.839844-.808594 8.414062-2.390625 4.714844-2.914063 7.585938-8.066406 7.585938-13.609375v-177.769531c19.761719-20.207031 32-47.804688 32-78.230469 0-61.761719-50.238281-112-112-112zm-80 112c0-44.113281 35.886719-80 80-80s80 35.886719 80 80-35.886719 80-80 80-80-35.886719-80-80zm0 0" fill="#FFFFFF"/><path d="m112 56c-8.832031 0-16 7.167969-16 16s7.167969 16 16 16c13.230469 0 24 10.769531 24 24 0 8.832031 7.167969 16 16 16s16-7.167969 16-16c0-30.871094-25.128906-56-56-56zm0 0" fill="#FFFFFF"/></svg>
